<svg xmlns="http://www.w3.org/2000/svg" xmlns:xlink="http://www.w3.org/1999/xlink" data-name="Layer 1" width="1090.760009765625" height="795.0700073242188" style=""><rect id="backgroundrect" width="100%" height="100%" x="0" y="0" fill="none" stroke="none"/><defs><linearGradient id="b2e9a30e-d699-40a8-8c6a-b63a5f54a941" x1="0.4999246895313263" y1="0.999954342842102" x2="0.4999246895313263" y2="-0.000021667739929398522"><stop offset="0" stop-color="gray" stop-opacity="0.25"/><stop offset="0.54" stop-color="gray" stop-opacity="0.12"/><stop offset="1" stop-color="gray" stop-opacity="0.1"/></linearGradient></defs><title>revenue</title><g class="currentLayer" style=""><title>Layer 1</title><path d="M979.2700010681153,96.46000091552733 l0.12000000000000001,0.33000000000000007 c-16,20.36 -36.17,44.66 -52.29,62.66 c-1.53,1.7200000000000002 -3.06,3.52 -4.53,5.36 l-0.46,-0.37000000000000005 c1.48,-1.85 3,-3.66 4.55,-5.38 C942.7800010681152,141.07000091552734 963.2600010681152,116.82000091552734 979.2700010681153,96.46000091552733 z" fill="#444053" id="svg_3"/><path d="M922.5000010681152,163.95000091552734 l0.32000000000000006,0.55 c-29.34,36.63 -31.28,93.51 -31.35,94 l-6.19,-7.14 C885.3800010681152,250.86000091552734 892.9500010681153,200.84000091552736 922.5000010681152,163.95000091552734 z" fill="#444053" id="svg_4"/><path d="M984.7800010681153,263.20000091552737 s-23.81,-19.76 -15.91,-54.28 " fill="none" stroke="#444053" stroke-miterlimit="10" id="svg_8"/><path d="M936.4700010681153,253.54000091552734 s-15.870000000000001,-33.25 -1.75,-54.89 " fill="none" stroke="#444053" stroke-miterlimit="10" id="svg_9"/><path d="M1001.7600010681153,159.04000091552734 s-21.94,27.09 -20.34,51.71 " fill="none" stroke="#444053" stroke-miterlimit="10" id="svg_12" class=""/><path d="M963.3800010681152,169.66000091552735 s-21.8,20.84 -19,32.43 " fill="none" stroke="#444053" stroke-miterlimit="10" id="svg_13"/><path d="M950.1800010681152,162.30000091552733 s-20.44,3.67 -23.3,-3 " fill="none" stroke="#444053" stroke-miterlimit="10" id="svg_14"/><path d="M923.6200010681152,137.62000091552736 s10.33,13.68 13,10.620000000000001 " fill="none" stroke="#444053" stroke-miterlimit="10" id="svg_15"/><path d="M904.7600010681152,149.09000091552736 s-0.06000000000000001,30.59 -8.34,32.76 " fill="none" stroke="#444053" stroke-miterlimit="10" id="svg_22"/><path d="M836.6800010681152,188.72000091552735 S869.7500010681152,191.54000091552734 885.0000010681152,174.54000091552734 " fill="none" stroke="#444053" stroke-miterlimit="10" id="svg_23"/><path d="M896.2200010681153,112.95000091552734 s-8,31 -30.08,39.38 " fill="none" stroke="#444053" stroke-miterlimit="10" id="svg_24"/><path d="M816.8400010681153,156.04000091552734 s23.41,8.14 43.54,-12.59 " fill="none" stroke="#444053" stroke-miterlimit="10" id="svg_25"/><path d="M817.7300010681153,115.89000091552734 s19.43,0.13 24,-6.2 " fill="none" stroke="#444053" stroke-miterlimit="10" id="svg_27"/><path d="M187.91000106811524,742.6100009155274 s13.31,-8.78 26.5,-2.5300000000000002 c0,0 -4.06,7.82 -20.76,7.08 z" fill="#000000" id="svg_28"/><path d="M186.28000106811524,743.0800009155273 S182.23000106811523,758.5400009155273 192.38000106811523,768.9900009155274 c0,0 6.11,-6.36 0.05000000000000001,-21.93 z" fill="#000000" id="svg_29"/><path d="M169.68000106811525,728.2800009155274 s1,-13.12 30.6,-8.77 c0,0 0.14,8.46 -10.26,12.47 S174.87000106811524,732.6100009155274 169.68000106811525,728.2800009155274 z" fill="#000000" id="svg_30"/><path d="M167.86000106811522,728.1900009155273 s-12.52,4 -1.36,31.79 c0,0 8.26,-1.84 9.72,-12.89 S173.29000106811523,732.2100009155273 167.86000106811522,728.1900009155273 z" fill="#000000" id="svg_31"/><path d="M151.09000106811524,709.5400009155273 s-1.6900000000000002,-21.58 28.57,-19.36 c0,0 2.15,19.53 -23.22,24.55 z" fill="#000000" id="svg_32"/><path d="M131.10000106811523,685.2200009155273 s4.14,-24.45 34.39,-17.16 c0,0 0.12000000000000001,21.14 -29.46,23 z" fill="#000000" id="svg_33"/><path d="M116.48000106811523,660.0400009155273 s7,-23.88 36.92,-16.69 c0,0 -7.13,21.42 -34.93,21.09 z" fill="#000000" id="svg_34"/><path d="M102.60000106811523,635.4400009155273 s6.79,-24.72 35.72,-17.3 c0,0 -9.66,23.49 -33.82,21.51 z" fill="#000000" id="svg_35"/><path d="M150.27000106811522,709.4300009155273 s-21.46,-2.81 -20.82,27.52 c0,0 19.4,3.16 25.73,-21.92 z" fill="#000000" id="svg_46"/><path d="M130.08000106811522,684.4100009155273 s-24.8,-0.09000000000000002 -22.78,31 c0,0 20.81,3.72 27.68,-25.1 z" fill="#000000" id="svg_47"/><path d="M1000.6400010681152,133.27000091552733 V738.1100009155274 c0,18 -17.35,32.61 -38.78,32.61 H141.23000106811523 c-21.42,0 -38.77,-14.63 -38.77,-32.61 V133.27000091552733 c0,-18 17.35,-36.39 38.77,-36.39 l820.59,2 C983.2400010681151,98.87000091552736 1000.6400010681152,115.25000091552735 1000.6400010681152,133.27000091552733 z" fill="#e8eaf2" id="svg_64" class=""/><path d="M1000.6400010681152,133.45000091552734 v28 H102.46000106811525 v-28 a36.57,36.57 0 0 1 36.57,-36.57 h825 A36.58,36.58 0 0 1 1000.6400010681152,133.45000091552734 z" fill="#65617d" id="svg_65" class=""/><circle cx="145.97000122070312" cy="129.16000366210938" r="12.920000076293945" fill="#fa5959" opacity="0.8" id="svg_66"/><circle cx="183.5800018310547" cy="129.16000366210938" r="12.920000076293945" fill="#fed253" opacity="0.8" id="svg_67"/><circle cx="221.17999267578125" cy="129.16000366210938" r="12.920000076293945" fill="#8ccf4d" opacity="0.8" id="svg_68"/><path d="M980.6900010681152,758.1700009155273 L958.8600010681153,726.5400009155273 s-0.41000000000000003,-7.83 -1.84,-9.66 s-0.30000000000000004,-5.91 -0.30000000000000004,-5.91 s1.53,-2.24 0.2,-2.44 s-0.2,-5.19 -0.2,-5.19 l-0.11000000000000001,-7.94 s1.23,-7.63 0.21000000000000002,-9.46 a3,3 0 0 1 0.1,-3.25 s1.22,-4.38 0,-5.5 s-0.92,-7.94 -0.6100000000000001,-13.33 s-2.14,-8.44 -2.14,-9.26 s-8.06,-8.75 -8.06,-9.46 s-5.1,-3.67 -8.16,-4.48 s-4.59,-1.42 -4.49,-1.83 s-4.79,-2 -4.79,-2 s-4.29,-0.30000000000000004 -5.92,-2.44 s-6.62,-2.75 -6.76,-2.77 s-0.07,-0.29000000000000004 -0.1,-0.43000000000000005 l-0.09000000000000002,-0.46 c0.38000000000000006,-0.6400000000000001 0.7400000000000001,-1.31 1.06,-2 l0.29000000000000004,-0.6200000000000001 a8.7,8.7 0 0 0 5,-1.56 a6.87,6.87 0 0 0 2.44,-4.88 a10.67,10.67 0 0 0 -1.19,-5.42 c-0.9,-1.84 -2.21,-3.73 -1.7600000000000002,-5.72 c0.2,-0.8600000000000001 0.7100000000000001,-1.61 1,-2.45 a6.5,6.5 0 0 0 -0.7300000000000001,-4.82 c-0.78,-1.48 -1.85,-2.7800000000000002 -2.71,-4.21 a16.52,16.52 0 0 1 -2.16,-6 a9.29,9.29 0 0 0 -0.79,-3.24 a6.17,6.17 0 0 0 -1.79,-1.81 a17.85,17.85 0 0 0 -11,-3.3200000000000003 c-2.7800000000000002,0.09000000000000002 -5.55,0.8400000000000001 -8.31,0.5 a29.23,29.23 0 0 1 -4.84,-1.27 c-3.42,-1 -7.37,-1.4300000000000002 -10.35,0.53 s-4.16,5.8100000000000005 -6.18,8.82 c-1.79,2.67 -4.4,4.9 -5.76,7.72 c0,-0.05000000000000001 0,-0.11000000000000001 0,-0.16000000000000003 a9.57,9.57 0 0 0 -0.7600000000000001,2.06 a14.71,14.71 0 0 0 0.45,6.74 a4.74,4.74 0 0 0 1.6500000000000001,3 c1,0.6400000000000001 2.39,0.49000000000000005 3.5700000000000003,0.7000000000000001 c0,0.19000000000000003 -0.1,0.38000000000000006 -0.14,0.5800000000000001 a23.28,23.28 0 0 0 16.17,27.17 c0,0.21000000000000002 0,0.42000000000000004 0,0.6200000000000001 a14,14 0 0 1 -0.11000000000000001,1.75 h0 s-10.25,-2.11 -13,-0.6800000000000002 s-8.16,2.54 -9,3.36 s-2.8600000000000003,0.2 -4.7,5 s-2,9.67 -4.38,11.91 s-3.5700000000000003,3.7600000000000002 -3.67,5.39 s0.30000000000000004,2 -0.6200000000000001,2.54 s-2.24,2.6500000000000004 -1.83,3.46 a2.91,2.91 0 0 1 -1.12,3.06 a3.37,3.37 0 0 0 -1.4300000000000002,3 s-0.6100000000000001,2.24 -2,2.75 s-2.35,3.8600000000000003 -2.35,3.8600000000000003 l-4.62,5.32 l-9.17,-10.14 a3.88,3.88 0 0 0 -5.46,-0.28 l-4.5,4 a8.92,8.92 0 0 0 -4.5,2.68 a11.8,11.8 0 0 0 -2.34,3.47 l-2.46,2.22 a6.26,6.26 0 0 0 -0.6300000000000001,6.92 l5.87,6.49 l0,0.06000000000000001 A10.37,10.37 0 0 0 811.3800010681152,710.2400009155274 c-8.77,7.73 -8.88,14.86 -7.55,18.11 s12.44,15.78 12.44,15.78 s6.46,8.39 15.78,12.86 h0 l-0.07,0.07 c-0.18000000000000002,0.2 -0.37000000000000005,0.41000000000000003 -0.55,0.6400000000000001 l-0.15000000000000002,0.19000000000000003 a2.43,2.43 0 0 1 -0.14,0.2 l-0.16000000000000003,0.24000000000000002 l-0.13,0.2 l-0.18000000000000002,0.30000000000000004 l-0.11000000000000001,0.19000000000000003 l-0.21000000000000002,0.4 s-0.05000000000000001,0.08000000000000002 -0.07,0.13 s-0.17,0.36000000000000004 -0.25,0.55 a1.8,1.8 0 0 0 -0.08000000000000002,0.21000000000000002 c-0.06000000000000001,0.13 -0.11000000000000001,0.27 -0.16000000000000003,0.4 l-0.09000000000000002,0.27 c0,0.13 -0.09000000000000002,0.26 -0.13,0.39000000000000007 l-0.09000000000000002,0.29000000000000004 l-0.12000000000000001,0.45 c0,0.09000000000000002 -0.05000000000000001,0.18000000000000002 -0.08000000000000002,0.27 s-0.11000000000000001,0.48000000000000004 -0.16000000000000003,0.7300000000000001 a2.5,2.5 0 0 1 -0.05000000000000001,0.29000000000000004 l-0.09000000000000002,0.53 c0,0.12000000000000001 0,0.24000000000000002 -0.05000000000000001,0.37000000000000005 l-0.06000000000000001,0.5 c0,0.13 0,0.26 0,0.39000000000000007 s0,0.38000000000000006 0,0.5800000000000001 l0,0.36000000000000004 c0,0.32000000000000006 0,0.6400000000000001 0,1 c-0.21000000000000002,11.91 0.49000000000000005,13.64 0.49000000000000005,13.64 a6.6,6.6 0 0 0 5.41,4.06 a7.07,7.07 0 0 0 1.75,-0.09000000000000002 c5.3,-0.92 17.74,-3.06 22.13,-2.24 c2.64,0.49000000000000005 7.52,-0.24000000000000002 11,-0.8900000000000001 l0.92,-0.18000000000000002 l0.6400000000000001,2 l2,-0.55 l1.7200000000000002,1 c0.45,0.27 0.8200000000000001,0.48000000000000004 1.08,0.6200000000000001 c2,6.83 10.18,4.5 10.18,4.5 l1.94,1.12 l19.68,0.51 a39.93,39.93 0 0 0 7,3.34 a6.44,6.44 0 0 0 1,0.22000000000000003 a46.07,46.07 0 0 0 5.49,0.1 c1.51,0 2.67,-0.1 2.67,-0.1 s-0.2,-5.35 -0.48000000000000004,-11.33 a160.37,160.37 0 0 0 18.23,-1.49 c10.51,-1.85 14.9,-11.41 16.51,-16.52 a47.54,47.54 0 0 1 1,6.34 a47.23,47.23 0 0 0 1.6300000000000001,5.5 a18.57,18.57 0 0 0 2.25,4.07 c7.75,-2.6500000000000004 3.06,-6.62 1.4300000000000002,-8.35 s1.12,-3.15 1.12,-3.15 s2.14,-1.4300000000000002 1.94,-2.75 s-0.31000000000000005,-2.75 6.63,-2.64 S980.6900010681152,758.1700009155273 980.6900010681152,758.1700009155273 zm-107.71,-65 c0.09000000000000002,0.5900000000000001 1.06,6.85 1.9300000000000002,8.5 a10.86,10.86 0 0 1 0.23,3.36 c-4.11,-0.33000000000000007 -8.39,-0.51 -8.39,-0.51 a1,1 0 0 1 0.22000000000000003,0.53 l-0.6400000000000001,-0.15000000000000002 l-0.9400000000000001,-0.23 l7.57,-11.51 zm-15,23.87 l7.12,1.12 l0.5900000000000001,0.1 a25.2,25.2 0 0 0 -0.37000000000000005,3.36 c0,0.1 0.17,0.23 0.39000000000000007,0.38000000000000006 a9,9 0 0 0 -0.13,1.6800000000000002 c0.11000000000000001,0.56 3.44,1.78 7.25,2.79 c-0.05000000000000001,0.21000000000000002 -0.1,0.4 -0.16000000000000003,0.5800000000000001 h0 c-3.37,-1.77 -8.67,-2.6 -9.28,-3.91 S844.7200010681153,715.5400009155273 844.7200010681153,715.5400009155273 s-0.6600000000000001,-0.35000000000000003 -1.8,-0.9 l4.76,0.9 l1.3,-0.13 A70.63,70.63 0 0 0 857.9800010681153,717.0600009155273 z" fill="url(#b2e9a30e-d699-40a8-8c6a-b63a5f54a941)" id="svg_69"/><path d="M957.4700010681153,762.5900009155273 s-2.83,17.09 -17.19,19.61 s-62.27,2 -62.27,2 s-27.39,-4 -37.3,-27.1 s-16.27,-32.34 -7.78,-32.75 s54.28,15.47 56.91,15.67 S960.0000010681152,704.8700009155274 957.4700010681153,762.5900009155273 z" fill="#65617d" id="svg_70"/><path d="M957.4700010681153,762.5900009155273 s-2.83,17.09 -17.19,19.61 s-62.27,2 -62.27,2 s-27.39,-4 -37.3,-27.1 s-16.27,-32.34 -7.78,-32.75 s54.28,15.47 56.91,15.67 S960.0000010681152,704.8700009155274 957.4700010681153,762.5900009155273 z" opacity="0.05" id="svg_71"/><path d="M828.9700010681153,781.6000009155273 a6.55,6.55 0 0 0 5.36,4 a6.91,6.91 0 0 0 1.73,-0.09000000000000002 c5.26,-0.91 17.59,-3 21.94,-2.22 c2.6100000000000003,0.48000000000000004 7.45,-0.24000000000000002 10.89,-0.8900000000000001 c2.29,-0.43000000000000005 4,-0.8300000000000001 4,-0.8300000000000001 s-4.05,-13.45 -4.55,-13.85 s-18.2,-11 -18.2,-11 l-14,-1 h0 a7.42,7.42 0 0 0 -4.75,2.79 c-1.48,1.79 -2.75,4.73 -2.83,9.54 C828.2800010681152,779.8800009155274 828.9700010681153,781.6000009155273 828.9700010681153,781.6000009155273 z" fill="#3f3d56" id="svg_72"/><path d="M828.9700010681153,781.6000009155273 a6.55,6.55 0 0 0 5.36,4 a56.39,56.39 0 0 1 -3.8,-5.55 l0.07,-9.8 a17.28,17.28 0 0 1 5.5,-14.56 h0 s-7.38,0.5 -7.58,12.33 S828.9700010681153,781.6000009155273 828.9700010681153,781.6000009155273 z" opacity="0.05" id="svg_73"/><path d="M889.7400010681152,760.1700009155273 l13,-10.21 l20.52,-20.22 s-2.21,-0.11000000000000001 -5.5600000000000005,-0.25 c-0.8300000000000001,0.53 -3.16,2.2 -3.25,4.22 c-0.1,2.47 -5.54,0.17 -8.37,1.59 s-16.68,19.14 -19.11,19 s-4.35,-1.23 -5.36,0.49000000000000005 l-0.07,0.11000000000000001 z" opacity="0.1" id="svg_74"/><path d="M831.3100010681152,758.5400009155273 l1.42,0.6500000000000001 c9.9,4.24 22.13,13.14 23,14.76 c0.56,1 7.65,5.28 13.12,8.51 c2.29,-0.43000000000000005 4,-0.8300000000000001 4,-0.8300000000000001 s-4.05,-13.45 -4.55,-13.85 s-18.2,-11 -18.2,-11 l-14,-1 h0 A7.42,7.42 0 0 0 831.3100010681152,758.5400009155273 z" opacity="0.1" id="svg_75"/><path d="M803.8100010681152,729.5400009155273 c1.32,3.23 12.34,15.67 12.34,15.67 s7,9.09 16.88,13.34 s22.14,13.14 23.05,14.76 c0.5800000000000001,1 8.48,5.79 14,9.06 l1.25,0.7300000000000001 l2.7600000000000002,1.6 l1.46,0.8400000000000001 l6.75,-5.45 c3.33,-2.7 6.640000000000001,-5.42 6.69,-5.57 c0.1,-0.30000000000000004 1.42,-3.74 1.11,-3.94 c-0.15000000000000002,-0.11000000000000001 -0.8500000000000001,-1.5 -2.13,-3.13 a14.19,14.19 0 0 0 -5.15,-4.25 a14.67,14.67 0 0 1 -6.67,-7 s-0.44000000000000006,-0.32000000000000006 -1.11,-0.7400000000000001 a13.39,13.39 0 0 0 -4.55,-2 c-2.22,-0.28 -6.36,-4.83 -6.36,-4.83 a12.45,12.45 0 0 1 -3.95,-4.14 c-1.06,-2.22 -16.74,-13 -18.19,-14 l38,24.41 l9.09,5.84 l13,-10.21 l20.53,-20.21 s-2.7600000000000002,-0.14 -6.78,-0.31000000000000005 c-10,-0.43000000000000005 -27.68,-1.11 -29.92,-0.6000000000000001 a17.19,17.19 0 0 1 -5.5600000000000005,0.36000000000000004 s-5,0.23 -8.39,-1.54 s-8.59,-2.58 -9.2,-3.89 s-18.5,-7.57 -18.5,-7.57 s-24.36,-12.94 -33.06,-5.26 S802.5000010681152,726.3000009155273 803.8100010681152,729.5400009155273 z" fill="#65617d" id="svg_76"/><path d="M882.3800010681152,655.3400009155273 l3.13,10.41 l4,23.45 l14.86,1 l4.3,-7.13 l4.29,-7.12 s2.68,-9.48 4.6,-18.64 c1.7000000000000002,-8.12 2.81,-16 1,-16.84 c-1.6400000000000001,-0.7600000000000001 -2.72,-3.49 -3.42,-6.43 c-0.09000000000000002,-0.36000000000000004 -0.17,-0.7300000000000001 -0.24000000000000002,-1.1 a56.73,56.73 0 0 1 -1,-7.54 s-31.14,-1.61 -26.79,11.23 a20.31,20.31 0 0 1 1.17,6.82 a16.14,16.14 0 0 1 -0.1,1.7400000000000002 A14.56,14.56 0 0 1 882.3800010681152,655.3400009155273 z" fill="#ee8e9e" id="svg_77"/><path d="M875.8900010681152,653.6200009155274 l1.11,17.69 l2.5300000000000002,15.06 l2.83,7 L884.8900010681152,731.5400009155273 s24.37,2.8200000000000003 30.3,-0.05000000000000001 a2.64,2.64 0 0 0 1.07,-0.8400000000000001 C923.3800010681152,719.8100009155273 921.0800010681153,688.5400009155273 921.0800010681153,688.5400009155273 l2.73,-20.21 l-1.82,-10.5 l-4.4,-0.46 l-3.39,-0.37000000000000005 s-0.7600000000000001,0.9400000000000001 -1.86,2.4 c-3,4 -8.51,11.74 -8.14,15 c0.5,4.45 -0.6100000000000001,9 -2.33,9.71 s-3.13,1.92 -3.44,0.7000000000000001 a5.51,5.51 0 0 1 -0.30000000000000004,-3.23 c0.30000000000000004,-1.7200000000000002 -1.31,-7 -1.31,-7 s-2.73,-6.16 -2.5300000000000002,-8.79 s-0.30000000000000004,-5.66 -1.11,-6.37 s-1.92,-1.42 -1,-4.65 s-4,-9.53 -4,-9.53 z" fill="#e3e8f4" id="svg_78"/><path d="M908.0900010681153,697.8000009155273 l1,30.23 l5.84,3.23 a2.54,2.54 0 0 0 1.07,-0.8300000000000001 c7.16,-10.82 4.8100000000000005,-42.13 4.8100000000000005,-42.13 l2.73,-20.22 l-1.82,-10.49 l-4.39,-0.47000000000000003 c1.7000000000000002,-8.11 2.81,-16 1,-16.84 c-1.6400000000000001,-0.7600000000000001 -2.72,-3.49 -3.42,-6.42 h0 l-3.15,21.38 s0.26,1.9300000000000002 0.35000000000000003,3.92 a11,11 0 0 1 -0.25,3.7600000000000002 c-0.7100000000000001,1.82 -0.2,5.06 -0.2,5.06 c-1.83,3.21 -2.74,9.16 -3.18,14.9 C907.8600010681153,690.5400009155273 908.0900010681153,697.8000009155273 908.0900010681153,697.8000009155273 z" opacity="0.1" id="svg_79"/><path d="M914.9700010681153,633.3700009155274 s5.1,0.6400000000000001 6.71,2.7600000000000002 s5.87,2.43 5.87,2.43 s4.85,1.61 4.75,2 s1.4100000000000001,1 4.45,1.82 s8.08,3.74 8.08,4.45 s8,8.59 8,9.4 s2.43,3.84 2.12,9.2 s-0.6000000000000001,12.13 0.6100000000000001,13.24 s0,5.46 0,5.46 a3,3 0 0 0 -0.1,3.23 c1,1.82 -0.2,9.4 -0.2,9.4 l0.1,7.890000000000001 s-1.11,5 0.2,5.15 s-0.2,2.43 -0.2,2.43 s-1.11,4 0.30000000000000004,5.86 s1.82,9.61 1.82,9.61 l21.63,31.44 s0.31000000000000005,5.76 -6.57,5.66 s-6.77,1.31 -6.57,2.63 s-1.92,2.72 -1.92,2.72 s-2.73,1.42 -1.11,3.14 s6.27,5.66 -1.42,8.29 a18.58,18.58 0 0 1 -2.22,-4 a45.59,45.59 0 0 1 -1.62,-5.45 s-0.7100000000000001,-7.69 -2.12,-8.7 S954.3800010681152,757.5400009155273 954.3800010681152,757.5400009155273 s2,-3.94 -0.81,-5.5600000000000005 s-43.88,-24.36 -43.88,-24.36 l-1,-30.23 s-0.7000000000000001,-22.34 3.54,-29.82 c0,0 -0.5,-3.24 0.2,-5.06 s-0.1,-7.68 -0.1,-7.68 z" fill="#3f3d56" id="svg_80"/><path d="M888.4800010681153,645.5400009155273 s-10.16,-2.09 -12.89,-0.6800000000000002 s-8.09,2.5300000000000002 -8.9,3.34 s-2.83,0.2 -4.65,5 s-2,9.61 -4.35,11.83 s-3.5300000000000002,3.74 -3.63,5.36 s0.30000000000000004,2 -0.6100000000000001,2.5300000000000002 s-2.23,2.62 -1.82,3.43 s21,18.6 21,18.6 s1,6.78 1.92,8.49 s-1,25.38 -3,27 s13.65,1.46 13.65,1.46 s0.7100000000000001,-15.52 1.32,-16.32 s-0.41000000000000003,-17.39 -0.41000000000000003,-17.39 s-0.1,-14.15 1.21,-17.9 s1.17,-16.17 1.17,-16.17 s1.1600000000000001,-7.46 2.5700000000000003,-9.2 S888.4800010681153,645.5400009155273 888.4800010681153,645.5400009155273 z" opacity="0.1" id="svg_81"/><path d="M888.1800010681152,645.2000009155273 s-10.17,-2.1 -12.9,-0.6800000000000002 s-8.08,2.5300000000000002 -8.89,3.34 s-2.83,0.2 -4.65,4.95 s-2,9.6 -4.35,11.83 s-3.54,3.74 -3.64,5.35 s0.31000000000000005,2 -0.6000000000000001,2.5300000000000002 s-2.23,2.63 -1.82,3.44 S872.3800010681152,694.5400009155273 872.3800010681152,694.5400009155273 s1,6.77 1.92,8.49 s-1,25.37 -3,27 S884.8900010681152,731.5400009155273 884.8900010681152,731.5400009155273 s0.7100000000000001,-15.52 1.31,-16.33 s-0.4,-17.39 -0.4,-17.39 s-0.1,-14.15 1.21,-17.89 s1.17,-16.17 1.17,-16.17 s1.1600000000000001,-7.46 2.5700000000000003,-9.2 S888.1800010681152,645.2000009155273 888.1800010681152,645.2000009155273 z" fill="#3f3d56" id="svg_82"/><path d="M887.1100010681153,636.6400009155274 a20.31,20.31 0 0 1 1.17,6.82 a23.18,23.18 0 0 0 26.61,-10.51 a56.73,56.73 0 0 1 -1,-7.54 S882.7600010681152,623.8000009155273 887.1100010681153,636.6400009155274 z" opacity="0.1" id="svg_83"/><path d="M871.7500010681152,620.6600009155273 a23.12,23.12 0 1 0 0.5,-4.8100000000000005 A23.14,23.14 0 0 0 871.7500010681152,620.6600009155273 z" fill="#ee8e9e" id="svg_84"/><path d="M856.8900010681152,674.2400009155274 L851.3800010681152,675.9600009155273 a2.88,2.88 0 0 1 -1.12,3 a3.39,3.39 0 0 0 -1.4100000000000001,3 s-0.6100000000000001,2.23 -2,2.73 s-2.33,3.85 -2.33,3.85 l-4.65,5.35 s-1.7200000000000002,1.42 -1.4100000000000001,2.13 s-1.82,0.91 -1.82,0.91 l1.11,18 l9.6,1.82 l6,-0.6100000000000001 l4.85,-1.82 l4.24,-2.52 l1.9300000000000002,-5 l8.49,-12.94 z" fill="#3f3d56" id="svg_85"/><path d="M837.9800010681153,698.4000009155274 s-12.33,-17.79 -21.53,-8.19 s3.74,25.17 6.77,24.67 S840.7100010681153,713.5400009155273 840.7100010681153,713.5400009155273 z" fill="#ee8e9e" id="svg_86"/><rect x="1234.300048828125" y="354.7900085449219" width="64.55000305175781" height="50.119998931884766" rx="1.5399999618530273" transform="rotate(27.040000915527344 383.51000976562506,-371.7300109863282) " fill="#3f3d56" id="svg_87"/><rect x="1239.510009765625" y="359.3000183105469" width="54.2599983215332" height="40.88999938964844" transform="rotate(27.040000915527344 383.48999023437494,-371.7699890136718) " fill="#000000" id="svg_88"/><circle cx="802.47998046875" cy="685.760009765625" r="0.8899999856948853" fill="#e6e8ec" id="svg_89"/><circle cx="854.7899780273438" cy="712.5599975585938" r="1.4700000286102295" fill="#e6e8ec" id="svg_90"/><path d="M830.0000010681152,702.1400009155274 c-0.1,13.35 27.49,16.17 27.49,16.17 l7,1.12 l3.16,0.5 l1.32,-13 s-1.45,-0.21000000000000002 -3.26,-0.6300000000000001 c-2.67,-0.6300000000000001 -6.13,-1.7000000000000002 -6.85,-3.21 C857.6900010681152,700.5400009155273 830.1000010681153,688.8000009155273 830.0000010681152,702.1400009155274 z" fill="#ee8e9e" id="svg_91"/><path d="M872.2500010681152,615.8500009155273 a2.7,2.7 0 0 1 1.6900000000000002,0.7600000000000001 c0.79,0.8300000000000001 0.8300000000000001,2.29 1.84,2.8 a2,2 0 0 0 1.21,0.14 c2.6900000000000004,-0.38000000000000006 4.24,-3.41 6.82,-4.25 a7,7 0 0 1 4.53,0.39000000000000007 a3.35,3.35 0 0 1 1.49,1 c0.8700000000000001,1.12 0.26,2.77 0.6600000000000001,4.12 c0.56,1.8800000000000001 2.8,2.62 4.74,2.87 s4.13,0.38000000000000006 5.42,1.84 a4.94,4.94 0 0 1 1,3.92 a3.05,3.05 0 0 0 0,1.44 c0.54,1.52 3.16,1.29 3.85,0.1 c0.5,-0.8700000000000001 0.3400000000000001,-1.6 1.52,-1.84 a5.06,5.06 0 0 1 2.48,0.43000000000000005 a18.08,18.08 0 0 0 6.4,1 a23.15,23.15 0 1 0 -43.6,-14.66 z" opacity="0.1" id="svg_92"/><path d="M901.6000010681153,630.2400009155274 a3.09,3.09 0 0 1 0,-1.45 a4.93,4.93 0 0 0 -1,-3.91 c-1.29,-1.47 -3.48,-1.61 -5.42,-1.85 s-4.18,-1 -4.74,-2.87 c-0.4,-1.35 0.21000000000000002,-3 -0.6600000000000001,-4.11 a3.19,3.19 0 0 0 -1.49,-1 a6.83,6.83 0 0 0 -4.53,-0.39000000000000007 c-2.58,0.8300000000000001 -4.13,3.87 -6.82,4.25 a2.17,2.17 0 0 1 -1.21,-0.14 c-1,-0.51 -1.06,-2 -1.84,-2.81 c-1.22,-1.3 -3.55,-0.46 -5.06,-1.42 a4.68,4.68 0 0 1 -1.6300000000000001,-3 a14.67,14.67 0 0 1 -0.45,-6.7 c0.8800000000000001,-3.7600000000000002 4.24,-6.34 6.39,-9.55 c2,-3 3.12,-6.78 6.13,-8.76 s6.86,-1.53 10.25,-0.53 a30,30 0 0 0 4.8,1.26 c2.74,0.3400000000000001 5.48,-0.41000000000000003 8.23,-0.5 a17.7,17.7 0 0 1 10.870000000000001,3.3 a6.07,6.07 0 0 1 1.77,1.8 a9.18,9.18 0 0 1 0.79,3.21 a16.44,16.44 0 0 0 2.13,5.92 c0.8500000000000001,1.42 1.92,2.71 2.6900000000000004,4.18 a6.47,6.47 0 0 1 0.7200000000000001,4.79 c-0.26,0.8300000000000001 -0.77,1.58 -1,2.43 c-0.45,2 0.8500000000000001,3.8600000000000003 1.7400000000000002,5.68 a10.81,10.81 0 0 1 1.18,5.39 a6.79,6.79 0 0 1 -2.43,4.85 a8.67,8.67 0 0 1 -5.12,1.55 a18.12,18.12 0 0 1 -6.53,-1 a5.16,5.16 0 0 0 -2.47,-0.43000000000000005 c-1.18,0.25 -1,1 -1.53,1.84 C904.7600010681152,631.5400009155273 902.1400010681152,631.7500009155274 901.6000010681153,630.2400009155274 z" fill="#3f3d56" id="svg_93"/><path d="M889.1300010681152,760.7700009155274 l13,-10.21 l20.53,-20.21 s-2.7600000000000002,-0.14 -6.78,-0.31000000000000005 a4.48,4.48 0 0 0 -1.4300000000000002,2.7600000000000002 c-0.1,2.47 -5.54,0.17 -8.37,1.59 s-16.68,19.14 -19.11,19 s-4.35,-1.23 -5.36,0.49000000000000005 l-0.07,0.11000000000000001 a2.9,2.9 0 0 1 -1.54,0.92 z" opacity="0.1" id="svg_94"/><path d="M862.8500010681153,760.0700009155273 L869.3800010681152,780.9800009155274 l1,3.29 l3.12,-0.8600000000000001 l6.88,-1.8900000000000001 l30.64,-8.41 a26.63,26.63 0 0 0 11,-3 a33.42,33.42 0 0 1 19,-4.15 c4,0.38000000000000006 8.55,-1.37 12.29,-8.27 c0,0 8.49,-25.07 -12.94,-32.25 s-22.46,3.8200000000000003 -22.46,3.8200000000000003 l-0.29000000000000004,0.18000000000000002 c-0.8300000000000001,0.53 -3.16,2.2 -3.25,4.22 c-0.1,2.47 -5.54,0.17 -8.37,1.59 s-16.68,19.14 -19.11,19 s-4.35,-1.23 -5.36,0.49000000000000005 l-0.07,0.11000000000000001 c-0.7500000000000001,1 -3,1.27 -4.49,1.32 c-0.81,0 -1.4,0 -1.4,0 l-0.19000000000000003,0.06000000000000001 l-1.56,0.46 z" fill="#65617d" id="svg_95"/><path d="M864.5400010681152,719.4300009155273 l3.16,0.5 l1.32,-13 s-1.45,-0.21000000000000002 -3.26,-0.6300000000000001 C866.2400010681152,708.0800009155273 865.1600010681152,715.1100009155274 864.5400010681152,719.4300009155273 z" opacity="0.1" id="svg_96"/><path d="M947.2100010681153,658.5400009155273 s9.4,-2.73 7.07,24 s-19.71,43.57 -19.71,43.57 s-20,8.79 -29,7.38 s-15.57,-1.7200000000000002 -15.57,-1.7200000000000002 a22.82,22.82 0 0 0 -9.1,-2.43 c-5,-0.2 -15.67,-3.33 -15.870000000000001,-4.35 s2.63,-15.870000000000001 1.4100000000000001,-17 c0,0 14.16,0.5800000000000001 15.57,1.61 s3.44,0.29000000000000004 5,0 s6.16,-4.34 15.36,-0.8 c0,0 3.14,0.30000000000000004 4.35,-0.5 a4.35,4.35 0 0 1 3.16,-0.21000000000000002 a8.81,8.81 0 0 0 2.2,-1.11 c0.30000000000000004,-0.4 2.73,0 2.73,0 a1.07,1.07 0 0 0 1.51,-0.7100000000000001 a6.68,6.68 0 0 1 1.42,-2.22 s2.73,-15.37 7.88,-21.13 a3.27,3.27 0 0 0 1.11,-2.93 C926.2800010681152,678.3100009155273 935.0700010681153,655.2600009155274 947.2100010681153,658.5400009155273 z" opacity="0.1" id="svg_97"/><path d="M946.9600010681153,656.4500009155273 s9.4,-2.73 7.07,24 s-19.71,43.57 -19.71,43.57 s-20,8.79 -29,7.38 s-15.57,-1.7200000000000002 -15.57,-1.7200000000000002 a22.76,22.76 0 0 0 -9.1,-2.43 c-5,-0.2 -15.67,-3.33 -15.870000000000001,-4.35 s2.63,-15.870000000000001 1.42,-17 c0,0 14.15,0.5800000000000001 15.56,1.61 s3.44,0.29000000000000004 5,0 s6.16,-4.34 15.36,-0.8 c0,0 3.14,0.30000000000000004 4.35,-0.51 a4.38,4.38 0 0 1 3.16,-0.2 a8.81,8.81 0 0 0 2.2,-1.11 c0.30000000000000004,-0.4 2.73,0 2.73,0 a1.07,1.07 0 0 0 1.51,-0.7100000000000001 a6.68,6.68 0 0 1 1.42,-2.22 s2.73,-15.37 7.88,-21.13 a3.29,3.29 0 0 0 1.12,-2.93 C926.0300010681152,676.2600009155274 934.8300010681153,653.2100009155273 946.9600010681153,656.4500009155273 z" fill="#3f3d56" id="svg_98"/><path d="M873.9400010681152,756.7400009155274 l13.36,16.16 l0.08000000000000002,-0.09000000000000002 c0.1,-0.31000000000000005 1.4100000000000001,-3.75 1.11,-3.95 s-2.63,-5.26 -7.28,-7.38 a13.72,13.72 0 0 1 -5.71,-5.2 z" opacity="0.1" id="svg_99"/><path d="M874.1300010681152,784.7000009155273 l1.46,0.8400000000000001 l6.75,-5.45 c3.33,-2.7 6.640000000000001,-5.42 6.69,-5.57 c0.1,-0.30000000000000004 1.42,-3.74 1.11,-3.94 c-0.15000000000000002,-0.11000000000000001 -0.8500000000000001,-1.5 -2.13,-3.13 c-9,-2.5300000000000002 -3.2800000000000002,3.75 -2.52,4 c0,0 -11,-2.5300000000000002 -11.620000000000001,9.47 A14.24,14.24 0 0 0 874.1300010681152,784.7000009155273 z" opacity="0.1" id="svg_100"/><path d="M885.2900010681152,789.7900009155273 l1.92,1.11 l19.51,0.5 a39.53,39.53 0 0 0 6.91,3.33 a6,6 0 0 0 1,0.21000000000000002 a43.24,43.24 0 0 0 5.44,0.1 c1.49,0 2.6500000000000004,-0.1 2.6500000000000004,-0.1 s-0.93,-24.6 -1.62,-27.19 c-0.3400000000000001,-1.24 -2,-1 -3.58,-0.35000000000000003 a23.87,23.87 0 0 0 -3.5,1.77 s-8.29,0.8 -9.6,1.52 s-5.06,-0.41000000000000003 -7.38,0 s-6.47,-2.74 -6.47,-2.74 c-11.32,-3.74 -5,3.24 -4.15,3.54 c0,0 -11,-2.5300000000000002 -11.620000000000001,9.47 S885.2900010681152,789.7900009155273 885.2900010681152,789.7900009155273 z" fill="#3f3d56" id="svg_101"/><path d="M913.4900010681152,780.2800009155274 c0.22000000000000003,5.1 4.19,11.42 6.5600000000000005,14.76 c1.49,0 2.6500000000000004,-0.1 2.6500000000000004,-0.1 s-0.93,-24.6 -1.62,-27.19 c-0.3400000000000001,-1.24 -2,-1 -3.58,-0.35000000000000003 C915.5400010681152,771.0700009155273 913.3800010681152,776.1800009155273 913.4900010681152,780.2800009155274 z" fill="#565387" id="svg_102"/><path d="M913.4900010681152,780.2800009155274 c0.22000000000000003,5.1 4.19,11.42 6.5600000000000005,14.76 c1.49,0 2.6500000000000004,-0.1 2.6500000000000004,-0.1 s-0.93,-24.6 -1.62,-27.19 c-0.3400000000000001,-1.24 -2,-1 -3.58,-0.35000000000000003 C915.5400010681152,771.0700009155273 913.3800010681152,776.1800009155273 913.4900010681152,780.2800009155274 z" opacity="0.1" id="svg_103"/><path d="M910.1600010681152,780.9600009155273 c1.34,4.92 1.33,10.43 3.47,13.77 a6,6 0 0 0 1,0.21000000000000002 a43.24,43.24 0 0 0 5.44,0.1 c1.49,0 2.6500000000000004,-0.1 2.6500000000000004,-0.1 s-0.93,-24.6 -1.62,-27.19 c-0.3400000000000001,-1.24 -2,-1 -3.58,-0.35000000000000003 a23.87,23.87 0 0 0 -3.5,1.77 S908.4400010681152,774.6600009155273 910.1600010681152,780.9600009155273 z" opacity="0.05" id="svg_104"/><path d="M842.8500010681153,731.0800009155273 s9.69,3.15 17.9,14.33 z" opacity="0.1" id="svg_105"/><g opacity="0.1" id="svg_106"><path d="M921.6000010681153,609.7800009155274 l-0.06000000000000001,0.22000000000000003 a6.71,6.71 0 0 1 -0.3400000000000001,0.8400000000000001 A6.78,6.78 0 0 1 921.6000010681153,609.7800009155274 z" id="svg_107"/><path d="M866.7700010681152,604.8800009155274 a9.38,9.38 0 0 1 0.7500000000000001,-2 c0,0.17 -0.1,0.3400000000000001 -0.14,0.52 a14.45,14.45 0 0 0 0.45,6.71 a4.640000000000001,4.640000000000001 0 0 0 1.6300000000000001,3 c1.5,1 3.83,0.13 5.06,1.4300000000000002 c0.78,0.8200000000000001 0.8200000000000001,2.29 1.84,2.8 a2.08,2.08 0 0 0 1.21,0.14 c2.68,-0.38000000000000006 4.24,-3.42 6.82,-4.25 a6.8,6.8 0 0 1 4.52,0.39000000000000007 a3.44,3.44 0 0 1 1.5,1 c0.8600000000000001,1.12 0.26,2.7600000000000002 0.6600000000000001,4.12 c0.55,1.87 2.79,2.62 4.73,2.8600000000000003 s4.13,0.39000000000000007 5.43,1.85 a5,5 0 0 1 1,3.91 a3,3 0 0 0 0,1.45 c0.53,1.52 3.15,1.29 3.84,0.09000000000000002 c0.5,-0.8700000000000001 0.35000000000000003,-1.59 1.53,-1.83 a4.91,4.91 0 0 1 2.47,0.43000000000000005 a18.37,18.37 0 0 0 6.53,1 a8.78,8.78 0 0 0 5.13,-1.56 a5.8100000000000005,5.8100000000000005 0 0 0 1.57,-1.9100000000000001 a6.43,6.43 0 0 1 -2.18,3.43 a8.69,8.69 0 0 1 -5.12,1.55 a18.12,18.12 0 0 1 -6.53,-1 a5.18,5.18 0 0 0 -2.48,-0.43000000000000005 c-1.18,0.25 -1,1 -1.53,1.84 c-0.6800000000000002,1.2 -3.3,1.42 -3.84,-0.09000000000000002 a3.23,3.23 0 0 1 0,-1.45 a4.890000000000001,4.890000000000001 0 0 0 -1,-3.91 c-1.29,-1.47 -3.48,-1.61 -5.42,-1.85 s-4.18,-1 -4.74,-2.87 c-0.4,-1.35 0.21000000000000002,-3 -0.6600000000000001,-4.11 a3.24,3.24 0 0 0 -1.49,-1 a6.83,6.83 0 0 0 -4.53,-0.39000000000000007 c-2.58,0.8300000000000001 -4.14,3.87 -6.82,4.25 a2.17,2.17 0 0 1 -1.21,-0.14 c-1,-0.51 -1.06,-2 -1.84,-2.81 c-1.23,-1.3 -3.55,-0.46 -5.06,-1.42 a4.640000000000001,4.640000000000001 0 0 1 -1.6300000000000001,-3 A14.53,14.53 0 0 1 866.7700010681152,604.8800009155274 z" id="svg_108"/></g><path d="M923.1700010681152,685.7900009155273 c-1.86,2.5 -4,4.8100000000000005 -5.61,7.46 a14.16,14.16 0 0 0 -2.46,8.82 c1.7000000000000002,-1.7400000000000002 2.48,-4.14 3.55,-6.32 c1.81,-3.7 4.51,-6.83 6.8,-10.23 c0.43000000000000005,-0.6500000000000001 3.22,-4.4 1.81,-4.57 C926.0900010681153,680.8000009155273 923.8000010681152,684.9400009155273 923.1700010681152,685.7900009155273 z" opacity="0.1" id="svg_109"/><path d="M286.6500010681152,360.26000091552737 H203.92000106811525 a2.7600000000000002,2.7600000000000002 0 1 0 0,5.51 h82.73 a2.7600000000000002,2.7600000000000002 0 1 0 0,-5.51 zm0,9.45 H203.92000106811525 a2.7600000000000002,2.7600000000000002 0 0 0 0,5.52 h82.73 a2.7600000000000002,2.7600000000000002 0 0 0 0,-5.52 zm-4.15,-63.78 H208.08000106811522 a6.93,6.93 0 0 0 -6.92,6.91 v35 a6.93,6.93 0 0 0 6.92,6.91 h74.42 a6.93,6.93 0 0 0 6.91,-6.91 v-35 A6.93,6.93 0 0 0 282.50000106811524,305.93000091552733 zm-65.19,42.55 h-7.09 a2.7600000000000002,2.7600000000000002 0 0 1 0,-5.52 h7.09 a2.7600000000000002,2.7600000000000002 0 0 1 0,5.52 zm0,-30.73 h-7.09 a2.7600000000000002,2.7600000000000002 0 0 1 0,-5.52 h7.09 a2.7600000000000002,2.7600000000000002 0 0 1 0,5.52 zm28,28.36 a15.76,15.76 0 1 1 15.76,-15.76 A15.78,15.78 0 0 1 245.29000106811526,346.11000091552734 zM280.38000106811523,348.48000091552734 h-7.09 a2.7600000000000002,2.7600000000000002 0 0 1 0,-5.52 H280.38000106811523 a2.7600000000000002,2.7600000000000002 0 0 1 0,5.52 zm0,-30.73 h-7.09 a2.7600000000000002,2.7600000000000002 0 0 1 0,-5.52 H280.38000106811523 a2.7600000000000002,2.7600000000000002 0 0 1 0,5.52 z" fill="#fff" id="svg_110"/><circle cx="245.2899932861328" cy="330.7300109863281" r="10.4399995803833" fill="#fff" id="svg_111"/><rect x="403.44000244140625" y="236.27999877929688" width="375.69000244140625" height="208.5800018310547" fill="#000000" opacity="0.2" id="svg_112"/><rect x="403.44000244140625" y="491.5199890136719" width="375.69000244140625" height="208.5800018310547" fill="#000000" opacity="0.2" id="svg_113"/><rect x="477.32000732421875" y="381.5199890136719" width="11.369999885559082" height="38.099998474121094" fill="#fff" id="svg_114"/><rect x="498.9700012207031" y="334.3500061035156" width="11.369999885559082" height="85.2699966430664" fill="#fff" id="svg_115"/><rect x="520.6300048828125" y="291.8500061035156" width="11.369999885559082" height="127.7699966430664" fill="#dfe3ef" id="svg_116"/><rect x="542.2899780273438" y="261.5299987792969" width="11.369999885559082" height="158.08999633789062" fill="#fff" id="svg_117"/><rect x="520.6300048828125" y="261.5299987792969" width="11.369999885559082" height="158.08999633789062" fill="#000000" id="svg_118"/><rect x="563.9400024414062" y="332.7200012207031" width="11.369999885559082" height="86.9000015258789" fill="#000000" id="svg_119"/><rect x="585.5999755859375" y="310.260009765625" width="11.369999885559082" height="109.36000061035156" fill="#000000" opacity="0.2" id="svg_120"/><rect x="607.25" y="276.1499938964844" width="11.369999885559082" height="143.47000122070312" fill="#000000" id="svg_121"/><rect x="628.9099731445312" y="355.7300109863281" width="11.369999885559082" height="63.88999938964844" fill="#000000" opacity="0.2" id="svg_122"/><rect x="650.5700073242188" y="326.2300109863281" width="11.369999885559082" height="93.38999938964844" fill="#000000" id="svg_123"/><rect x="672.219970703125" y="291.8500061035156" width="11.369999885559082" height="127.7699966430664" fill="#000000" opacity="0.2" id="svg_124"/><rect x="693.8800048828125" y="291.8500061035156" width="11.369999885559082" height="127.7699966430664" fill="#000000" id="svg_125"/><path d="M289.38000106811523,570.5900009155273 a6.32,6.32 0 0 0 -6.3,-6.3 H207.4700010681152 a6.33,6.33 0 0 0 -6.3100000000000005,6.3 v9.46 H289.38000106811523 zm-88.25,50.43 a6.33,6.33 0 0 0 6.3100000000000005,6.3100000000000005 h75.64 a6.32,6.32 0 0 0 6.3,-6.3100000000000005 V589.5400009155273 H201.16000106811524 zm28,-9.45 h32.31 a2.7600000000000002,2.7600000000000002 0 1 1 0,5.51 H229.13000106811523 a2.7600000000000002,2.7600000000000002 0 0 1 0,-5.51 zm-14.18,0 h2.36 a2.7600000000000002,2.7600000000000002 0 1 1 0,5.51 h-2.36 a2.7600000000000002,2.7600000000000002 0 1 1 0,-5.51 z" fill="#fff" id="svg_126"/><rect x="477.32000732421875" y="636.75" width="11.369999885559082" height="38.099998474121094" fill="#fff" id="svg_127"/><rect x="498.9700012207031" y="589.5800170898438" width="11.369999885559082" height="85.2699966430664" fill="#fff" id="svg_128"/><rect x="520.6300048828125" y="547.0800170898438" width="11.369999885559082" height="127.7699966430664" fill="#dfe3ef" id="svg_129"/><rect x="542.2899780273438" y="516.760009765625" width="11.369999885559082" height="158.08999633789062" fill="#fff" id="svg_130"/><rect x="520.6300048828125" y="516.760009765625" width="11.369999885559082" height="158.08999633789062" fill="#000000" id="svg_131"/><rect x="563.9400024414062" y="587.9500122070312" width="11.369999885559082" height="86.9000015258789" fill="#000000" id="svg_132"/><rect x="585.5999755859375" y="565.489990234375" width="11.369999885559082" height="109.36000061035156" fill="#fff" id="svg_133"/><rect x="607.25" y="531.3800048828125" width="11.369999885559082" height="143.47000122070312" fill="#fff" id="svg_134"/><rect x="628.9099731445312" y="610.9600219726562" width="11.369999885559082" height="63.88999938964844" fill="#000000" opacity="0.2" id="svg_135"/><rect x="650.5700073242188" y="581.4600219726562" width="11.369999885559082" height="93.38999938964844" fill="#000000" opacity="0.2" id="svg_136"/><rect x="672.219970703125" y="547.0800170898438" width="11.369999885559082" height="127.7699966430664" fill="#000000" opacity="0.2" id="svg_137"/><rect x="693.8800048828125" y="547.0800170898438" width="11.369999885559082" height="127.7699966430664" fill="#000000" opacity="0.2" id="svg_138"/></g></svg>